<svg xmlns="http://www.w3.org/2000/svg" viewBox="0 0 1124.42 1437.78"><title>self_icon_1</title><path d="M562.21,1437.78c-135.26,0-164-33-164-33s-14.59-25.14,1.93-78c0,0-21.64,15.89-20.15,43.63-65.66-51.94-121.25-127.33-166.31-206.44,2.66-96.41,35.24-200.9,36.05-203.5-1.15,2.24-38.18,74.67-51.42,175.63-30.74-57.54-58.9-127.21-67.21-147.29s-3.06-99.16-3.06-99.16-11,17-15,52.8c-26.47-73.81-40-129.52-40-141.77,0-79.94,14-146.23,14-146.23S74.76,662,70.4,686.7c-4-138-10.82-347.35-10.82-347.35,69.71,448.07,313.54,525.07,360.59,525.07,37.42,0,60.29-98.46,66.28-127.84a10.72,10.72,0,0,1,10-8.58c14.22-.65,43.6-1.86,65.74-1.86S613.73,727.35,628,728a10.71,10.71,0,0,1,10,8.58c6,29.38,28.87,127.84,66.28,127.84,47.06,0,290.88-77,360.59-525.07,0,0-6.87,209.36-10.82,347.35-4.35-24.67-16.75-32.24-16.75-32.24s14,66.29,14,146.23c0,12.25-13.53,68-40,141.77-3.91-35.83-15-52.8-15-52.8s5.27,79.08-3.05,99.16-36.47,89.75-67.21,147.29c-13.25-101-50.27-173.39-51.42-175.63.8,2.6,33.39,107.09,36.05,203.5-45.06,79.11-100.65,154.5-166.31,206.44,1.48-27.74-20.16-43.63-20.16-43.63,16.53,52.83,1.94,78,1.94,78S697.47,1437.78,562.21,1437.78Z" style="fill:#22242b"/><path d="M562.21,538.76l-34.16-17.87a26.5,26.5,0,0,0-20.5-1.71c-36.22,11.8-154.09,51.46-186.79,77.89-31.15,25.2-43,105.18-49.28,200.7l38.06,37.48s45.28-148.43,74.39-172.59,116.74-45.37,178.28-45.37,149.17,21.2,178.28,45.37,74.39,172.59,74.39,172.59l38.06-37.48c-6.3-95.52-18.13-175.5-49.29-200.7C771,570.64,653.09,531,616.86,519.18a26.51,26.51,0,0,0-20.5,1.71Z" style="fill:#22242b"/><path d="M1122.59,49.67a13.91,13.91,0,0,0-9.66-11.33C942.88-14.48,707.34-18.34,609,62.43a28.08,28.08,0,0,1-16.15,6.35c-26.56,1.62-8.51,1-30.61,1.75-22.1-.74-4.06-.13-30.61-1.75a28.14,28.14,0,0,1-16.16-6.35C417.08-18.34,181.54-14.48,11.49,38.34A13.89,13.89,0,0,0,1.83,49.67C.46,59.46-1.08,76,1.07,91.83a13.85,13.85,0,0,0,10.81,11.74C23.29,106,43.2,116,53.23,154.69c22.67,87.54,28.3,202,196.05,202.53,167.39.56,193.29-29.59,238.6-125.77s42.3-88.32,74.33-88.32,29-7.86,74.32,88.32,71.21,126.33,238.6,125.77c167.76-.56,173.39-115,196.06-202.53,10-38.73,29.93-48.68,41.35-51.12a13.85,13.85,0,0,0,10.81-11.74C1125.5,76,1124,59.46,1122.59,49.67ZM471.7,213.88C423.3,338.52,345.46,338,267.78,338c-50.63,0-166.46,1.39-173.4-140C88.87,85.48,59.58,25.12,286.51,23.83,476,22.76,522.33,83.48,471.7,213.88ZM1030,197.93c-6.94,141.42-122.77,140-173.4,140-77.69,0-155.53.56-203.92-124.08-50.64-130.4-4.34-191.12,185.19-190C1064.83,25.12,1035.55,85.48,1030,197.93Z" style="fill:#22242b"/><path d="M479.8,689.94c53.54,2.51,109.4,4.26,158.94-19.46,7-3.34.88-13.69-6.06-10.36-47.4,22.7-101.75,20.22-152.88,17.82-7.72-.36-7.7,11.64,0,12Z" style="fill:#22242b"/><path d="M534,215.73c1.64,24-1,47.93-4.49,71.65-3.56,24-7.38,48-11.08,72-3.53,22.82-8.32,45.83-10.36,68.84-.78,8.79-.31,18,3.8,26,4.26,8.27,12.53,13.29,21.44,15.14,11.83,2.45,24.59,1.74,36.55.78a233.54,233.54,0,0,0,39-6.48c7.48-1.9,4.31-13.48-3.19-11.57-20.62,5.24-42.56,8.12-63.86,6.41-8.2-.66-16.65-3.28-20.06-11.48-3.13-7.53-2.07-16.59-1-24.44,6.27-44.06,13.81-88,20.34-132,3.68-24.78,6.64-49.76,4.92-74.84-.52-7.66-12.52-7.72-12,0Z" style="fill:#22242b"/><ellipse cx="290.47" cy="178.61" rx="36.82" ry="49.36" style="fill:#22242b"/><path d="M176.06,87.17c20.22,1.82,39.75-4.18,59-9.47a383.17,383.17,0,0,1,53.84-11.18c35.65-4.45,72.9-2.36,105.28,14.51,6.84,3.56,12.91-6.79,6.05-10.36C347.72,43.3,285.92,51.21,231,66.38c-18,5-36,10.49-54.91,8.79-7.69-.69-7.65,11.31,0,12Z" style="fill:#22242b"/><ellipse cx="833.94" cy="178.61" rx="36.82" ry="49.36" style="fill:#22242b"/><path d="M950.74,65.16c-32.94-1.91-64.49-13.68-97.12-18.07C822.87,43,791.56,42.84,761,48.73A216.22,216.22,0,0,0,710.7,65.06c-7,3.25-.91,13.6,6,10.36C773.52,49,837.14,53.51,896.44,67.66c17.91,4.27,35.86,8.43,54.3,9.5,7.71.45,7.69-11.55,0-12Z" style="fill:#22242b"/></svg>